<svg xmlns="http://www.w3.org/2000/svg" viewBox="0 0 9.21 9.21">
  <defs>
    <style>.cls-1{fill:#c1c1c1;}</style>
  </defs>
  <title>Asset 2</title>
  <g id="Layer_2" data-name="Layer 2">
    <g id="Layer_1-2" data-name="Layer 1">
      <path class="cls-1" d="M8.44,8.44V5.37A.38.38,0,0,1,8.82,5a.39.39,0,0,1,.39.38V8.83a.38.38,0,0,1-.39.38H.38a.4.4,0,0,1-.27-.12A.35.35,0,0,1,0,8.82H0V.38H0A.38.38,0,0,1,.38,0H3.84a.38.38,0,0,1,.38.38.38.38,0,0,1-.38.39H.77V8.44Zm0-7.13L3.5,6.24a.38.38,0,0,1-.54,0A.39.39,0,0,1,3,5.7L7.9.77H6.52A.38.38,0,0,1,6.14.38.38.38,0,0,1,6.52,0h2.3a.35.35,0,0,1,.27.11.4.4,0,0,1,.12.27V2.69a.39.39,0,0,1-.77,0Z"/>
    </g>
  </g>
</svg>