<svg xmlns="http://www.w3.org/2000/svg" viewBox="0 0 14.97 12.16">
  <defs>
    <style>.cls-1{fill:#c1c1c1;}</style>
  </defs>
  <title>Asset 5</title>
  <g id="Layer_2" data-name="Layer 2">
    <g id="Layer_1-2" data-name="Layer 1">
      <path class="cls-1" d="M13.43,3c0,.13,0,.27,0,.4a8.67,8.67,0,0,1-8.73,8.73A8.62,8.62,0,0,1,0,10.78a6,6,0,0,0,.74,0A6.12,6.12,0,0,0,4.55,9.51,3.07,3.07,0,0,1,1.68,7.38a3.68,3.68,0,0,0,.58,0,3.1,3.1,0,0,0,.81-.11,3.06,3.06,0,0,1-2.46-3v0A3.07,3.07,0,0,0,2,4.66,3.05,3.05,0,0,1,.63,2.11,3.12,3.12,0,0,1,1,.56,8.73,8.73,0,0,0,7.37,3.77a3.26,3.26,0,0,1-.07-.7A3.07,3.07,0,0,1,12.61,1,6,6,0,0,0,14.55.23,3,3,0,0,1,13.2,1.92,6.18,6.18,0,0,0,15,1.44,6.64,6.64,0,0,1,13.43,3Z"/>
    </g>
  </g>
</svg>